<?xml version="1.0" standalone="no"?><!DOCTYPE svg PUBLIC "-//W3C//DTD SVG 1.1//EN" "http://www.w3.org/Graphics/SVG/1.1/DTD/svg11.dtd"><svg t="1747124352548" class="icon" viewBox="0 0 1024 1024" version="1.1" xmlns="http://www.w3.org/2000/svg" p-id="2620" xmlns:xlink="http://www.w3.org/1999/xlink" width="16" height="16"><path d="M835.610258 1024h-647.231996A116.485688 116.485688 0 0 1 72.018852 907.64059V116.359869A116.485688 116.485688 0 0 1 188.378262 0.000459h471.085708a115.808379 115.808379 0 0 1 82.436555 34.140971L917.828697 210.081082a115.808379 115.808379 0 0 1 34.140971 82.425076v615.134432A116.485688 116.485688 0 0 1 835.610258 1024zM188.378262 73.471278A42.93451 42.93451 0 0 0 145.489671 116.359869v791.280721A42.93451 42.93451 0 0 0 188.378262 950.529181h647.231996a42.93451 42.93451 0 0 0 42.888591-42.888591V292.506158a42.819712 42.819712 0 0 0-12.627797-30.47891L689.9314 86.099075a42.785272 42.785272 0 0 0-30.47891-12.627797z" fill="#ffffff" p-id="2621"></path><path d="M757.088321 365.058591h-185.973011a36.73541 36.73541 0 0 1 0-73.470819h185.973011a36.73541 36.73541 0 0 1 0 73.470819z" fill="#ffffff" p-id="2622"></path><path d="M664.101815 458.045097a36.73541 36.73541 0 0 1-36.735409-36.73541V235.336677a36.73541 36.73541 0 0 1 73.470819 0v185.97301a36.73541 36.73541 0 0 1-36.73541 36.73541zM607.138971 742.836359A41.545452 41.545452 0 0 1 568.807867 717.488927L551.875139 677.309573l-30.995502-73.47082-32.820792-77.787229a5.808787 5.808787 0 0 0-10.699188 0L444.550344 603.838753l-30.995502 73.47082-16.932727 40.179354a41.5466 41.5466 0 1 1-76.512971-32.407519l12.122685-28.515862L354.628949 603.838753l88.819333-209.058919c6.084302-14.407168 21.75425-23.981335 39.272449-23.981335s33.188147 9.574166 39.272448 23.981335L610.812512 603.838753l23.694339 55.757464 10.813986 25.439271a41.556932 41.556932 0 0 1-38.181866 57.800871z" fill="#ffffff" p-id="2623"></path><path d="M574.387057 672.717646H381.698354v-18.195507L401.340319 608.43068h145.862535l27.184203 64.286966z" fill="#ffffff" p-id="2624"></path></svg>