<?xml version="1.0" standalone="no"?><!DOCTYPE svg PUBLIC "-//W3C//DTD SVG 1.1//EN" "http://www.w3.org/Graphics/SVG/1.1/DTD/svg11.dtd"><svg t="1747124304992" class="icon" viewBox="0 0 1024 1024" version="1.1" xmlns="http://www.w3.org/2000/svg" p-id="1500" xmlns:xlink="http://www.w3.org/1999/xlink" width="16" height="16"><path d="M794.8288 819.2H229.1712C187.4944 819.2 153.6 789.2992 153.6 752.64v-430.08c0-36.6592 33.8944-66.56 75.5712-66.56h565.6576c41.6768 0 75.5712 29.9008 75.5712 66.56v430.08c0 36.6592-33.8944 66.56-75.5712 66.56zM229.1712 286.72C204.4928 286.72 184.32 302.7968 184.32 322.56v430.08c0 19.7632 20.1728 35.84 44.8512 35.84h565.6576c24.6784 0 44.8512-16.0768 44.8512-35.84v-430.08c0-19.7632-20.1728-35.84-44.8512-35.84H229.1712z" fill="#ffffff" p-id="1501"></path><path d="M153.6 409.6m3.072 0l710.656 0q3.072 0 3.072 3.072l0 24.576q0 3.072-3.072 3.072l-710.656 0q-3.072 0-3.072-3.072l0-24.576q0-3.072 3.072-3.072Z" fill="#ffffff" p-id="1502"></path><path d="M358.4 358.4c-28.2624 0-51.2-22.9376-51.2-51.2v-51.2c0-28.2624 22.9376-51.2 51.2-51.2s51.2 22.9376 51.2 51.2c0 8.4992-6.8608 15.36-15.36 15.36S378.88 264.4992 378.88 256c0-11.264-9.216-20.48-20.48-20.48s-20.48 9.216-20.48 20.48v51.2c0 11.264 9.216 20.48 20.48 20.48 8.4992 0 15.36 6.8608 15.36 15.36S366.8992 358.4 358.4 358.4zM412.0576 538.2144c-7.2704-2.3552-14.9504 2.2528-17.1008 9.8304l-21.2992 76.8-21.2992-76.8c-3.3792-12.288-23.1424-12.288-26.624 0l-21.2992 76.8-21.2992-76.8c-2.1504-7.5776-9.728-12.0832-17.1008-9.8304-7.3728 2.2528-11.5712 10.1376-9.4208 17.8176l34.6112 124.7232c3.3792 12.3904 23.1424 12.3904 26.624 0l21.2992-76.8 21.2992 76.8c1.7408 6.144 7.168 10.4448 13.312 10.4448s11.5712-4.1984 13.312-10.4448l34.6112-124.7232c2.1504-7.68-2.1504-15.5648-9.4208-17.8176zM523.5712 566.4768c7.68 0 13.824-6.4512 13.824-14.336s-6.144-14.336-13.824-14.336h-69.2224c-7.68 0-13.824 6.4512-13.824 14.336V676.864c0 7.9872 6.144 14.336 13.824 14.336h69.2224c7.68 0 13.824-6.4512 13.824-14.336s-6.144-14.336-13.824-14.336h-55.3984v-35.9424h55.3984c7.68 0 13.824-6.4512 13.824-14.336s-6.144-14.336-13.824-14.336h-55.3984v-31.3344h55.3984zM763.392 666.112l-57.344-53.5552 56.9344-49.4592c5.8368-5.12 6.656-14.1312 1.7408-20.2752s-13.5168-6.8608-19.456-1.8432l-46.4896 40.3456v-29.2864c0-7.9872-6.144-14.336-13.824-14.336s-13.824 6.4512-13.824 14.336v124.7232c0 7.9872 6.144 14.336 13.824 14.336s13.824-6.4512 13.824-14.336v-32.4608l46.08 43.1104c2.6624 2.4576 5.9392 3.6864 9.216 3.6864 3.7888 0 7.5776-1.6384 10.24-4.8128 5.12-5.9392 4.7104-14.9504-1.024-20.2752zM638.8736 566.4768c7.68 0 13.824-6.4512 13.824-14.336s-6.144-14.336-13.824-14.336h-69.2224c-7.68 0-13.824 6.4512-13.824 14.336V676.864c0 7.9872 6.144 14.336 13.824 14.336h69.2224c7.68 0 13.824-6.4512 13.824-14.336s-6.144-14.336-13.824-14.336h-55.3984v-35.9424h55.3984c7.68 0 13.824-6.4512 13.824-14.336s-6.144-14.336-13.824-14.336h-55.3984v-31.3344h55.3984zM665.6 358.4c-28.2624 0-51.2-22.9376-51.2-51.2v-51.2c0-28.2624 22.9376-51.2 51.2-51.2s51.2 22.9376 51.2 51.2c0 8.4992-6.8608 15.36-15.36 15.36S686.08 264.4992 686.08 256c0-11.264-9.216-20.48-20.48-20.48s-20.48 9.216-20.48 20.48v51.2c0 11.264 9.216 20.48 20.48 20.48 8.4992 0 15.36 6.8608 15.36 15.36S674.0992 358.4 665.6 358.4z" fill="#ffffff" p-id="1503"></path></svg>